<?xml version="1.0" encoding="UTF-8" standalone="no"?>
<svg xmlns="http://www.w3.org/2000/svg" version="1.1" viewBox="0 0 256 256" width="256" height="256">
<path d="m103.15 22.159c-16.537 0.000343-26.103 4.1034-26.103 4.1034l-2.0665 0.91864-0.86874 2.0868c-1.8681 4.4834-3.1478 10.59-3.1478 18.451 0 5.1748 0.48139 8.7624 1.048 11.218 0.56664 2.4554 1.5693 4.3566 1.5693 4.3566l2.5619 4.2716 4.571-1.9852c4.8866-2.1246 15.81-2.5415 20.027-2.5415 11.843 0 21.997 1.7086 28.472 4.852 6.4751 3.1434 9.2271 6.6268 9.2271 12.966 0 11.121-7.9265 18.533-18.005 24.005-10.079 5.4722-21.34 8.0979-25.238 9.033l-3.1755 0.76153-0.93898 3.1275c-0.86101 2.8701-1.0404 5.8918-1.3142 9.5691-0.27384 3.6773-0.43067 7.4918-0.43067 10.138 0 11.868 0.84061 19.362 1.7615 24.092 0.46045 2.365 0.94175 4.0396 1.3641 5.2235s1.0203 2.2624 1.0203 2.2624l1.2125 1.9852 2.2569 0.56375c3.166 0.79152 5.8947 0.77077 8.3048 0.77077 6.2635 0 11.804-1.3622 15.944-2.7984 2.0698-0.7181 3.7866-1.4572 5.0978-2.0961 0.65562-0.31942 1.2051-0.61048 1.6876-0.89092 0.48242-0.28044 0.52413-0.0514 1.7726-1.3013l1.6598-1.6635v-2.3493c0-1.1237 0.64519-8.5197 1.6931-14.807 0.52397-3.1438 1.1561-6.1795 1.7634-8.2512 0.22253-0.75923 0.3962-1.1633 0.56006-1.5637 0.48104-0.20191 0.74317-0.3141 1.7948-0.73751 1.6356-0.6585 3.783-1.5364 6.2401-2.6598 4.9144-2.2468 11.084-5.475 17.199-10.066 12.23-9.1825 24.373-24.391 24.373-46.866 0-12.742-4.6366-26.869-17.515-37.256-12.88-10.376-33.31-16.911-64.38-16.911h-0.002zm5.7244 159.96c-14.215 0-25.861 11.645-25.861 25.861s11.646 25.863 25.861 25.863 25.861-11.647 25.861-25.863c0-14.215-11.645-25.861-25.861-25.861z" fill="#72a7cf"/>
</svg>
