<?xml version="1.0" encoding="utf-8"?>
<!-- Generator: Adobe Illustrator 19.0.1, SVG Export Plug-In . SVG Version: 6.00 Build 0)  -->
<svg version="1.1" id="Layer_1" xmlns="http://www.w3.org/2000/svg" xmlns:xlink="http://www.w3.org/1999/xlink" x="0px" y="0px"
	 viewBox="-424.5 -21.5 404 404" style="enable-background:new -424.5 -21.5 404 404;" xml:space="preserve">
<style type="text/css">
	.st0{fill:#F05133;}
	.st1{fill:#FFFFFF;}
</style>
<circle class="st0" cx="-222.5" cy="180.5" r="192.5"/>
<g>
	<path class="st1" d="M-107,169.8L-211.8,65c-6-6-15.8-6-21.9,0l-21.8,21.8l27.6,27.6c6.4-2.2,13.8-0.7,18.9,4.4
		c5.1,5.1,6.6,12.6,4.4,19l26.6,26.6c6.4-2.2,13.9-0.8,19,4.4c7.2,7.2,7.2,18.8,0,26c-7.2,7.2-18.8,7.2-26,0c-5.4-5.4-6.7-13.3-4-20
		l-24.8-24.8v65.3c1.7,0.9,3.4,2,4.9,3.5c7.2,7.2,7.2,18.8,0,26c-7.2,7.2-18.8,7.2-26,0c-7.2-7.2-7.2-18.8,0-26c1.8-1.8,3.8-3.1,6-4
		v-65.9c-2.2-0.9-4.2-2.2-6-4c-5.4-5.4-6.7-13.4-4-20.1l-27.2-27.2l-71.9,71.8c-6,6-6,15.8,0,21.9L-233.2,296c6,6,15.8,6,21.9,0
		L-107,191.7C-101,185.6-101,175.8-107,169.8z"/>
</g>
</svg>
